<svg xmlns="http://www.w3.org/2000/svg" xmlns:xlink="http://www.w3.org/1999/xlink" version="1.1" x="0px" y="0px" viewBox="0 0 100 125" style="enable-background:new 0 0 100 100;" xml:space="preserve"><path d="M13.5234375,78.3598633C11.953125,79.2109375,10,80.2705078,10,82.4926758s1.953125,3.28125,3.5234375,4.1323242  C15.0644531,87.4609375,16,88.0375977,16,89c0,0.5522461,0.4472656,1,1,1s1-0.4477539,1-1  c0-2.222168-1.9541016-3.2817383-3.5234375-4.1328125C12.9355469,84.03125,12,83.4545898,12,82.4926758  c0-0.9624023,0.9355469-1.5390625,2.4765625-2.375C16.046875,79.2666016,18,78.2070312,18,75.9848633  c0-2.2211914-1.9541016-3.2797852-3.5234375-4.1308594C12.9355469,71.019043,12,70.4428711,12,69.4819336  c0-0.9594727,0.9355469-1.5351562,2.4765625-2.3691406C16.0458984,66.2626953,18,65.2050781,18,62.9848633  c0-2.2207031-1.9541016-3.2792969-3.5234375-4.1298828C12.9355469,58.0205078,12,57.4443359,12,56.4838867  c0-0.9599609,0.9355469-1.5356445,2.4765625-2.3701172C16.0458984,53.2631836,18,52.2050781,18,49.984375  c0-2.2202148-1.9541016-3.2788086-3.5234375-4.1289062C12.9355469,45.0209961,12,44.4453125,12,43.4853516  s0.9355469-1.5356445,2.4765625-2.3701172C16.0458984,40.2651367,18,39.206543,18,36.9863281  c0-2.2197266-1.9541016-3.2773438-3.5244141-4.1274414C12.9355469,32.0249023,12,31.4492188,12,30.4902344  c0-0.9580078,0.9355469-1.5336914,2.4755859-2.3671875C16.0458984,27.2734375,18,26.2163086,18,23.9970703  c0-2.2202148-1.9541016-3.2788086-3.5234375-4.1289062C12.9355469,19.0336914,12,18.4580078,12,17.4980469  c0-0.9594727,0.9355469-1.5351562,2.4765625-2.3696289C16.0458984,14.2783203,18,13.2202148,18,11c0-0.5522461-0.4472656-1-1-1  s-1,0.4477539-1,1c0,0.9594727-0.9355469,1.5351562-2.4765625,2.3696289C11.9541016,14.2197266,10,15.277832,10,17.4980469  s1.9541016,3.2788086,3.5234375,4.1289062C15.0644531,22.4614258,16,23.0371094,16,23.9970703  c0,0.9580078-0.9355469,1.5336914-2.4755859,2.3671875C11.9541016,27.2138672,10,28.2709961,10,30.4902344  c0,2.2197266,1.9541016,3.2773438,3.5244141,4.1274414C15.0644531,35.4516602,16,36.0273438,16,36.9863281  c0,0.9599609-0.9355469,1.5356445-2.4765625,2.3701172C11.9541016,40.206543,10,41.2651367,10,43.4853516  s1.9541016,3.2788086,3.5234375,4.1289062C15.0644531,48.4487305,16,49.0244141,16,49.984375  s-0.9355469,1.5361328-2.4765625,2.3706055C11.9541016,53.2055664,10,54.2636719,10,56.4838867  c0,2.2207031,1.9541016,3.2792969,3.5234375,4.1298828C15.0644531,61.4482422,16,62.0244141,16,62.9848633  c0,0.9594727-0.9355469,1.5351562-2.4765625,2.3691406C11.9541016,66.2041016,10,67.2617188,10,69.4819336  c0,2.2211914,1.9541016,3.2797852,3.5234375,4.1308594C15.0644531,74.4477539,16,75.0239258,16,75.9848633  C16,76.9472656,15.0644531,77.5239258,13.5234375,78.3598633z"/><path d="M31.5234375,78.3598633C29.953125,79.2109375,28,80.2705078,28,82.4926758s1.953125,3.28125,3.5234375,4.1323242  C33.0644531,87.4609375,34,88.0375977,34,89c0,0.5522461,0.4472656,1,1,1s1-0.4477539,1-1  c0-2.222168-1.9541016-3.2817383-3.5234375-4.1328125C30.9355469,84.03125,30,83.4545898,30,82.4926758  c0-0.9624023,0.9355469-1.5390625,2.4765625-2.375C34.046875,79.2666016,36,78.2070312,36,75.9848633  c0-2.2211914-1.9541016-3.2797852-3.5234375-4.1308594C30.9355469,71.019043,30,70.4428711,30,69.4819336  c0-0.9594727,0.9355469-1.5351562,2.4765625-2.3691406C34.0458984,66.2626953,36,65.2050781,36,62.9848633  c0-2.2207031-1.9541016-3.2792969-3.5234375-4.1298828C30.9355469,58.0205078,30,57.4443359,30,56.4838867  c0-0.9599609,0.9355469-1.5356445,2.4765625-2.3701172C34.0458984,53.2631836,36,52.2050781,36,49.984375  c0-2.2202148-1.9541016-3.2788086-3.5234375-4.1289062C30.9355469,45.0209961,30,44.4453125,30,43.4853516  s0.9355469-1.5356445,2.4765625-2.3701172C34.0458984,40.2651367,36,39.206543,36,36.9863281  c0-2.2197266-1.9541016-3.2773438-3.5244141-4.1274414C30.9355469,32.0249023,30,31.4492188,30,30.4902344  c0-0.9580078,0.9355469-1.5336914,2.4755859-2.3671875C34.0458984,27.2734375,36,26.2163086,36,23.9970703  c0-2.2202148-1.9541016-3.2788086-3.5234375-4.1289062C30.9355469,19.0336914,30,18.4580078,30,17.4980469  c0-0.9594727,0.9355469-1.5351562,2.4765625-2.3696289C34.0458984,14.2783203,36,13.2202148,36,11c0-0.5522461-0.4472656-1-1-1  s-1,0.4477539-1,1c0,0.9594727-0.9355469,1.5351562-2.4765625,2.3696289C29.9541016,14.2197266,28,15.277832,28,17.4980469  s1.9541016,3.2788086,3.5234375,4.1289062C33.0644531,22.4614258,34,23.0371094,34,23.9970703  c0,0.9580078-0.9355469,1.5336914-2.4755859,2.3671875C29.9541016,27.2138672,28,28.2709961,28,30.4902344  c0,2.2197266,1.9541016,3.2773438,3.5244141,4.1274414C33.0644531,35.4516602,34,36.0273438,34,36.9863281  c0,0.9599609-0.9355469,1.5356445-2.4765625,2.3701172C29.9541016,40.206543,28,41.2651367,28,43.4853516  s1.9541016,3.2788086,3.5234375,4.1289062C33.0644531,48.4487305,34,49.0244141,34,49.984375  s-0.9355469,1.5361328-2.4765625,2.3706055C29.9541016,53.2055664,28,54.2636719,28,56.4838867  c0,2.2207031,1.9541016,3.2792969,3.5234375,4.1298828C33.0644531,61.4482422,34,62.0244141,34,62.9848633  c0,0.9594727-0.9355469,1.5351562-2.4765625,2.3691406C29.9541016,66.2041016,28,67.2617188,28,69.4819336  c0,2.2211914,1.9541016,3.2797852,3.5234375,4.1308594C33.0644531,74.4477539,34,75.0239258,34,75.9848633  C34,76.9472656,33.0644531,77.5239258,31.5234375,78.3598633z"/><path d="M49.5234375,78.3598633C47.953125,79.2109375,46,80.2705078,46,82.4926758s1.953125,3.28125,3.5234375,4.1323242  C51.0644531,87.4609375,52,88.0375977,52,89c0,0.5522461,0.4472656,1,1,1s1-0.4477539,1-1  c0-2.222168-1.9541016-3.2817383-3.5234375-4.1328125C48.9355469,84.03125,48,83.4545898,48,82.4926758  c0-0.9624023,0.9355469-1.5390625,2.4765625-2.375C52.046875,79.2666016,54,78.2070312,54,75.9848633  c0-2.2211914-1.9541016-3.2797852-3.5234375-4.1308594C48.9355469,71.019043,48,70.4428711,48,69.4819336  c0-0.9594727,0.9355469-1.5351562,2.4765625-2.3691406C52.0458984,66.2626953,54,65.2050781,54,62.9848633  c0-2.2207031-1.9541016-3.2792969-3.5234375-4.1298828C48.9355469,58.0205078,48,57.4443359,48,56.4838867  c0-0.9599609,0.9355469-1.5356445,2.4765625-2.3701172C52.0458984,53.2631836,54,52.2050781,54,49.984375  c0-2.2202148-1.9541016-3.2788086-3.5234375-4.1289062C48.9355469,45.0209961,48,44.4453125,48,43.4853516  s0.9355469-1.5356445,2.4765625-2.3701172C52.0458984,40.2651367,54,39.206543,54,36.9863281  c0-2.2197266-1.9541016-3.2773438-3.5244141-4.1274414C48.9355469,32.0249023,48,31.4492188,48,30.4902344  c0-0.9580078,0.9355469-1.5336914,2.4755859-2.3671875C52.0458984,27.2734375,54,26.2163086,54,23.9970703  c0-2.2202148-1.9541016-3.2788086-3.5234375-4.1289062C48.9355469,19.0336914,48,18.4580078,48,17.4980469  c0-0.9594727,0.9355469-1.5351562,2.4765625-2.3696289C52.0458984,14.2783203,54,13.2202148,54,11c0-0.5522461-0.4472656-1-1-1  s-1,0.4477539-1,1c0,0.9594727-0.9355469,1.5351562-2.4765625,2.3696289C47.9541016,14.2197266,46,15.277832,46,17.4980469  s1.9541016,3.2788086,3.5234375,4.1289062C51.0644531,22.4614258,52,23.0371094,52,23.9970703  c0,0.9580078-0.9355469,1.5336914-2.4755859,2.3671875C47.9541016,27.2138672,46,28.2709961,46,30.4902344  c0,2.2197266,1.9541016,3.2773438,3.5244141,4.1274414C51.0644531,35.4516602,52,36.0273438,52,36.9863281  c0,0.9599609-0.9355469,1.5356445-2.4765625,2.3701172C47.9541016,40.206543,46,41.2651367,46,43.4853516  s1.9541016,3.2788086,3.5234375,4.1289062C51.0644531,48.4487305,52,49.0244141,52,49.984375  s-0.9355469,1.5361328-2.4765625,2.3706055C47.9541016,53.2055664,46,54.2636719,46,56.4838867  c0,2.2207031,1.9541016,3.2792969,3.5234375,4.1298828C51.0644531,61.4482422,52,62.0244141,52,62.9848633  c0,0.9594727-0.9355469,1.5351562-2.4765625,2.3691406C47.9541016,66.2041016,46,67.2617188,46,69.4819336  c0,2.2211914,1.9541016,3.2797852,3.5234375,4.1308594C51.0644531,74.4477539,52,75.0239258,52,75.9848633  C52,76.9472656,51.0644531,77.5239258,49.5234375,78.3598633z"/><path d="M67.5234375,78.3598633C65.953125,79.2109375,64,80.2705078,64,82.4926758s1.953125,3.28125,3.5234375,4.1323242  C69.0644531,87.4609375,70,88.0375977,70,89c0,0.5522461,0.4472656,1,1,1s1-0.4477539,1-1  c0-2.222168-1.9541016-3.2817383-3.5234375-4.1328125C66.9355469,84.03125,66,83.4545898,66,82.4926758  c0-0.9624023,0.9355469-1.5390625,2.4765625-2.375C70.046875,79.2666016,72,78.2070312,72,75.9848633  c0-2.2211914-1.9541016-3.2797852-3.5234375-4.1308594C66.9355469,71.019043,66,70.4428711,66,69.4819336  c0-0.9594727,0.9355469-1.5351562,2.4765625-2.3691406C70.0458984,66.2626953,72,65.2050781,72,62.9848633  c0-2.2207031-1.9541016-3.2792969-3.5234375-4.1298828C66.9355469,58.0205078,66,57.4443359,66,56.4838867  c0-0.9599609,0.9355469-1.5356445,2.4765625-2.3701172C70.0458984,53.2631836,72,52.2050781,72,49.984375  c0-2.2202148-1.9541016-3.2788086-3.5234375-4.1289062C66.9355469,45.0209961,66,44.4453125,66,43.4853516  s0.9355469-1.5356445,2.4765625-2.3701172C70.0458984,40.2651367,72,39.206543,72,36.9863281  c0-2.2197266-1.9541016-3.2773438-3.5244141-4.1274414C66.9355469,32.0249023,66,31.4492188,66,30.4902344  c0-0.9580078,0.9355469-1.5336914,2.4755859-2.3671875C70.0458984,27.2734375,72,26.2163086,72,23.9970703  c0-2.2202148-1.9541016-3.2788086-3.5234375-4.1289062C66.9355469,19.0336914,66,18.4580078,66,17.4980469  c0-0.9594727,0.9355469-1.5351562,2.4765625-2.3696289C70.0458984,14.2783203,72,13.2202148,72,11c0-0.5522461-0.4472656-1-1-1  s-1,0.4477539-1,1c0,0.9594727-0.9355469,1.5351562-2.4765625,2.3696289C65.9541016,14.2197266,64,15.277832,64,17.4980469  s1.9541016,3.2788086,3.5234375,4.1289062C69.0644531,22.4614258,70,23.0371094,70,23.9970703  c0,0.9580078-0.9355469,1.5336914-2.4755859,2.3671875C65.9541016,27.2138672,64,28.2709961,64,30.4902344  c0,2.2197266,1.9541016,3.2773438,3.5244141,4.1274414C69.0644531,35.4516602,70,36.0273438,70,36.9863281  c0,0.9599609-0.9355469,1.5356445-2.4765625,2.3701172C65.9541016,40.206543,64,41.2651367,64,43.4853516  s1.9541016,3.2788086,3.5234375,4.1289062C69.0644531,48.4487305,70,49.0244141,70,49.984375  s-0.9355469,1.5361328-2.4765625,2.3706055C65.9541016,53.2055664,64,54.2636719,64,56.4838867  c0,2.2207031,1.9541016,3.2792969,3.5234375,4.1298828C69.0644531,61.4482422,70,62.0244141,70,62.9848633  c0,0.9594727-0.9355469,1.5351562-2.4765625,2.3691406C65.9541016,66.2041016,64,67.2617188,64,69.4819336  c0,2.2211914,1.9541016,3.2797852,3.5234375,4.1308594C69.0644531,74.4477539,70,75.0239258,70,75.9848633  C70,76.9472656,69.0644531,77.5239258,67.5234375,78.3598633z"/><path d="M85.5234375,78.3598633C83.953125,79.2109375,82,80.2705078,82,82.4926758s1.953125,3.28125,3.5234375,4.1323242  C87.0644531,87.4609375,88,88.0375977,88,89c0,0.5522461,0.4472656,1,1,1s1-0.4477539,1-1  c0-2.222168-1.9541016-3.2817383-3.5234375-4.1328125C84.9355469,84.03125,84,83.4545898,84,82.4926758  c0-0.9624023,0.9355469-1.5390625,2.4765625-2.375C88.046875,79.2666016,90,78.2070312,90,75.9848633  c0-2.2211914-1.9541016-3.2797852-3.5234375-4.1308594C84.9355469,71.019043,84,70.4428711,84,69.4819336  c0-0.9594727,0.9355469-1.5351562,2.4765625-2.3691406C88.0458984,66.2626953,90,65.2050781,90,62.9848633  c0-2.2207031-1.9541016-3.2792969-3.5234375-4.1298828C84.9355469,58.0205078,84,57.4443359,84,56.4838867  c0-0.9599609,0.9355469-1.5356445,2.4765625-2.3701172C88.0458984,53.2631836,90,52.2050781,90,49.984375  c0-2.2202148-1.9541016-3.2788086-3.5234375-4.1289062C84.9355469,45.0209961,84,44.4453125,84,43.4853516  s0.9355469-1.5356445,2.4765625-2.3701172C88.0458984,40.2651367,90,39.206543,90,36.9863281  c0-2.2197266-1.9541016-3.2773438-3.5244141-4.1274414C84.9355469,32.0249023,84,31.4492188,84,30.4902344  c0-0.9580078,0.9355469-1.5336914,2.4755859-2.3671875C88.0458984,27.2734375,90,26.2163086,90,23.9970703  c0-2.2202148-1.9541016-3.2788086-3.5234375-4.1289062C84.9355469,19.0336914,84,18.4580078,84,17.4980469  c0-0.9594727,0.9355469-1.5351562,2.4765625-2.3696289C88.0458984,14.2783203,90,13.2202148,90,11c0-0.5522461-0.4472656-1-1-1  s-1,0.4477539-1,1c0,0.9594727-0.9355469,1.5351562-2.4765625,2.3696289C83.9541016,14.2197266,82,15.277832,82,17.4980469  s1.9541016,3.2788086,3.5234375,4.1289062C87.0644531,22.4614258,88,23.0371094,88,23.9970703  c0,0.9580078-0.9355469,1.5336914-2.4755859,2.3671875C83.9541016,27.2138672,82,28.2709961,82,30.4902344  c0,2.2197266,1.9541016,3.2773438,3.5244141,4.1274414C87.0644531,35.4516602,88,36.0273438,88,36.9863281  c0,0.9599609-0.9355469,1.5356445-2.4765625,2.3701172C83.9541016,40.206543,82,41.2651367,82,43.4853516  s1.9541016,3.2788086,3.5234375,4.1289062C87.0644531,48.4487305,88,49.0244141,88,49.984375  s-0.9355469,1.5361328-2.4765625,2.3706055C83.9541016,53.2055664,82,54.2636719,82,56.4838867  c0,2.2207031,1.9541016,3.2792969,3.5234375,4.1298828C87.0644531,61.4482422,88,62.0244141,88,62.9848633  c0,0.9594727-0.9355469,1.5351562-2.4765625,2.3691406C83.9541016,66.2041016,82,67.2617188,82,69.4819336  c0,2.2211914,1.9541016,3.2797852,3.5234375,4.1308594C87.0644531,74.4477539,88,75.0239258,88,75.9848633  C88,76.9472656,87.0644531,77.5239258,85.5234375,78.3598633z"/><text x="0" y="115" fill="#000000" font-size="5px" font-weight="bold" font-family="'Helvetica Neue', Helvetica, Arial-Unicode, Arial, Sans-serif">Created by Made by Made</text><text x="0" y="120" fill="#000000" font-size="5px" font-weight="bold" font-family="'Helvetica Neue', Helvetica, Arial-Unicode, Arial, Sans-serif">from the Noun Project</text></svg>