<svg xmlns="http://www.w3.org/2000/svg" viewBox="0 0 1200 600" class="h-auto max-h-96 w-full" preserveAspectRatio="xMidYMid meet"><defs><linearGradient id="waveGradient0" x1="0%" y1="0%" x2="100%" y2="100%"><stop offset="0%" stop-color="#4F46E5" stop-opacity="0.5"/><stop offset="100%" stop-color="#8B5CF6" stop-opacity="0.35"/></linearGradient><linearGradient id="rainbowGradient" x1="0%" y1="0%" x2="100%" y2="0%"><stop offset="0%" stop-color="#FF6B6B"/><stop offset="16.66%" stop-color="#4ECDC4"/><stop offset="33.33%" stop-color="#45B7D1"/><stop offset="50%" stop-color="#96CEB4"/><stop offset="66.66%" stop-color="#FFEAA7"/><stop offset="83.33%" stop-color="#DDA0DD"/><stop offset="100%" stop-color="#FF6B6B"/></linearGradient></defs><path d="M 0.00 420.00 L 6.00 409.50 L 12.00 399.29 L 18.00 390.15 L 24.00 382.82 L 30.00 377.92 L 36.00 375.86 L 42.00 376.79 L 48.00 380.58 L 54.00 386.87 L 60.00 395.11 L 66.00 404.66 L 72.00 414.86 L 78.00 425.07 L 84.00 434.71 L 90.00 443.30 L 96.00 450.40 L 102.00 455.66 L 108.00 458.77 L 114.00 459.56 L 120.00 457.92 L 126.00 453.90 L 132.00 447.69 L 138.00 439.64 L 144.00 430.22 L 150.00 420.00 L 156.00 409.63 L 162.00 399.75 L 168.00 391.01 L 174.00 383.99 L 180.00 379.17 L 186.00 376.92 L 192.00 377.44 L 198.00 380.74 L 204.00 386.60 L 210.00 394.63 L 216.00 404.23 L 222.00 414.69 L 228.00 425.24 L 234.00 435.14 L 240.00 443.78 L 246.00 450.67 L 252.00 455.50 L 258.00 458.12 L 264.00 458.50 L 270.00 456.67 L 276.00 452.73 L 282.00 446.84 L 288.00 439.18 L 294.00 430.09 L 300.00 420.00 L 306.00 409.50 L 312.00 399.29 L 318.00 390.15 L 324.00 382.82 L 330.00 377.92 L 336.00 375.86 L 342.00 376.79 L 348.00 380.58 L 354.00 386.87 L 360.00 395.11 L 366.00 404.66 L 372.00 414.86 L 378.00 425.07 L 384.00 434.71 L 390.00 443.30 L 396.00 450.40 L 402.00 455.66 L 408.00 458.77 L 414.00 459.56 L 420.00 457.92 L 426.00 453.90 L 432.00 447.69 L 438.00 439.64 L 444.00 430.22 L 450.00 420.00 L 456.00 409.63 L 462.00 399.75 L 468.00 391.01 L 474.00 383.99 L 480.00 379.17 L 486.00 376.92 L 492.00 377.44 L 498.00 380.74 L 504.00 386.60 L 510.00 394.63 L 516.00 404.23 L 522.00 414.69 L 528.00 425.24 L 534.00 435.14 L 540.00 443.78 L 546.00 450.67 L 552.00 455.50 L 558.00 458.12 L 564.00 458.50 L 570.00 456.67 L 576.00 452.73 L 582.00 446.84 L 588.00 439.18 L 594.00 430.09 L 600.00 420.00 L 606.00 409.50 L 612.00 399.29 L 618.00 390.15 L 624.00 382.82 L 630.00 377.92 L 636.00 375.86 L 642.00 376.79 L 648.00 380.58 L 654.00 386.87 L 660.00 395.11 L 666.00 404.66 L 672.00 414.86 L 678.00 425.07 L 684.00 434.71 L 690.00 443.30 L 696.00 450.40 L 702.00 455.66 L 708.00 458.77 L 714.00 459.56 L 720.00 457.92 L 726.00 453.90 L 732.00 447.69 L 738.00 439.64 L 744.00 430.22 L 750.00 420.00 L 756.00 409.63 L 762.00 399.75 L 768.00 391.01 L 774.00 383.99 L 780.00 379.17 L 786.00 376.92 L 792.00 377.44 L 798.00 380.74 L 804.00 386.60 L 810.00 394.63 L 816.00 404.23 L 822.00 414.69 L 828.00 425.24 L 834.00 435.14 L 840.00 443.78 L 846.00 450.67 L 852.00 455.50 L 858.00 458.12 L 864.00 458.50 L 870.00 456.67 L 876.00 452.73 L 882.00 446.84 L 888.00 439.18 L 894.00 430.09 L 900.00 420.00 L 906.00 409.50 L 912.00 399.29 L 918.00 390.15 L 924.00 382.82 L 930.00 377.92 L 936.00 375.86 L 942.00 376.79 L 948.00 380.58 L 954.00 386.87 L 960.00 395.11 L 966.00 404.66 L 972.00 414.86 L 978.00 425.07 L 984.00 434.71 L 990.00 443.30 L 996.00 450.40 L 1002.00 455.66 L 1008.00 458.77 L 1014.00 459.56 L 1020.00 457.92 L 1026.00 453.90 L 1032.00 447.69 L 1038.00 439.64 L 1044.00 430.22 L 1050.00 420.00 L 1056.00 409.63 L 1062.00 399.75 L 1068.00 391.01 L 1074.00 383.99 L 1080.00 379.17 L 1086.00 376.92 L 1092.00 377.44 L 1098.00 380.74 L 1104.00 386.60 L 1110.00 394.63 L 1116.00 404.23 L 1122.00 414.69 L 1128.00 425.24 L 1134.00 435.14 L 1140.00 443.78 L 1146.00 450.67 L 1152.00 455.50 L 1158.00 458.12 L 1164.00 458.50 L 1170.00 456.67 L 1176.00 452.73 L 1182.00 446.84 L 1188.00 439.18 L 1194.00 430.09 L 1200.00 420.00 L 1200.00 600.00 L 0.00 600.00 Z" fill="#3B82F6" fill-opacity="0.5" transform="" class="" style="transition:all 0.3s ease;filter:blur(0px)"/></svg>